Coordinates
version=1
nRows=19
nColumns=36
inDegrees=yes

Units are S.I. units (second, meters, Newtons, ...)
If the header above contains a line with 'inDegrees', this indicates whether rotational values are in degrees (yes) or radians (no).

endheader
time	pelvis_tilt	pelvis_list	pelvis_rotation	pelvis_tx	pelvis_ty	pelvis_tz	hip_flexion_r	hip_adduction_r	hip_rotation_r	knee_angle_r	knee_angle_r_beta	ankle_angle_r	subtalar_angle_r	mtp_angle_r	hip_flexion_l	hip_adduction_l	hip_rotation_l	knee_angle_l	knee_angle_l_beta	ankle_angle_l	subtalar_angle_l	mtp_angle_l	lumbar_extension	lumbar_bending	lumbar_rotation	arm_flex_r	arm_add_r	arm_rot_r	elbow_flex_r	pro_sup_r	arm_flex_l	arm_add_l	arm_rot_l	elbow_flex_l	pro_sup_l
      3.46250000	    -11.53065127	     -0.68277098	      0.06902187	      0.40123450	      0.91341678	     -0.07175751	      9.29091528	     -2.84030204	     -4.56504083	      0.23029421	      0.00401939	      3.96160465	      2.90496394	     -7.49999987	     10.44714962	     -3.26158208	     -8.80595497	      0.26589094	      0.00464067	      2.80997120	      9.24142280	     -7.49999987	     -7.80925153	      6.25154856	      2.78530278	      1.76812857	    -20.76774738	     64.33726995	     16.91857479	     34.47588306	     -2.77319427	    -24.65452051	     56.98794958	     29.06867990	     42.07602123
      3.46666670	    -11.53296005	     -0.65700299	      0.01639488	      0.40142346	      0.90958820	     -0.07191360	      9.32410965	     -2.83521318	     -4.58354996	      0.23177649	      0.00404526	      3.91565548	      2.84405540	     -7.49999987	     10.46348422	     -3.27112918	     -9.04588502	      0.26682073	      0.00465690	      3.11463462	      9.73897494	     -7.49999987	     -7.64503271	      6.26220602	      2.93834560	      1.56546306	    -21.28440072	     69.21209867	     17.29673700	     27.33618647	     -2.19050811	    -25.04633649	     62.01731147	     28.37382353	     36.14274419
      3.47083330	    -11.45621914	     -0.57211613	      0.07168524	      0.40525531	      0.91012940	     -0.07685767	      9.18011862	     -2.99994497	     -4.74290051	      0.23479108	      0.00409788	      4.00586098	      2.89036762	     -7.49999987	     10.35956435	     -3.14358705	     -9.10145358	      0.26517577	      0.00462819	      3.14744744	      9.92383735	     -7.49999987	     -7.65932083	      6.19155344	      2.68699616	      1.15873734	    -21.69184908	     69.41064832	     17.53227241	     27.36249123	     -2.84427017	    -25.23743568	     62.25225277	     28.02525606	     36.13930117
      3.47500000	    -11.40540702	     -0.52745000	      0.03316081	      0.40524147	      0.91267859	     -0.07668259	      9.08769486	     -3.12714565	     -4.80609173	      0.23645211	      0.00412687	      4.01198164	      2.99803528	     -7.49999987	     10.27064150	     -3.05254015	     -9.13083451	      0.25888719	      0.00451843	      3.24293462	      9.98152518	     -7.49999987	     -7.61054342	      6.19134533	      2.62255923	      0.96788952	    -22.19991796	     70.68969575	     17.88568864	     26.78444305	     -3.13368699	    -25.28718474	     63.68562269	     27.22719832	     34.87107517
      3.47916670	    -11.33948201	     -0.49676006	      0.01587340	      0.40509435	      0.91003193	     -0.07671109	      8.99156025	     -3.23484115	     -4.80207297	      0.23740270	      0.00414346	      3.98600263	      2.81883457	     -7.49999987	     10.15504987	     -2.96005320	     -9.19198898	      0.25385107	      0.00443054	      3.42017815	     10.24402263	     -7.49999987	     -7.64369244	      6.17478050	      2.64878890	      0.72344637	    -22.72869095	     69.97229471	     18.33626197	     30.22948923	     -3.69264392	    -25.41864853	     62.94217121	     26.95525850	     37.40673539
      3.48333330	    -11.36057963	     -0.47021448	      0.01759769	      0.40527885	      0.90964263	     -0.07671533	      8.96178919	     -3.32117117	     -4.85267686	      0.24083049	      0.00420328	      4.05009983	      2.94414868	     -7.49999987	     10.12021684	     -2.89968763	     -8.98936849	      0.24878063	      0.00434204	      3.40445855	     10.01987494	     -7.49999987	     -7.55064431	      6.10427500	      2.38210315	      0.59429308	    -23.11676450	     69.42662630	     18.85832888	     32.14828307	     -4.22428629	    -25.62503729	     62.56721307	     26.79968341	     38.77656057
      3.48750000	    -11.44182397	     -0.46729797	     -0.01047807	      0.40508595	      0.91298318	     -0.07629336	      8.99385236	     -3.33084162	     -4.89225268	      0.24620263	      0.00429705	      4.14834808	      2.99954492	     -7.49999987	     10.15281495	     -2.88619467	     -8.99765952	      0.24562575	      0.00428698	      3.55085194	     10.15637680	     -7.49999987	     -7.24461812	      6.04033294	      2.31398859	      0.66670608	    -23.46477676	     71.71274204	     19.42058640	     27.41781056	     -4.19871817	    -25.72082376	     64.97974995	     26.11228722	     33.68927537
      3.49166670	    -11.38967241	     -0.45489835	     -0.02801415	      0.40517508	      0.91245695	     -0.07621692	      8.90927892	     -3.34491863	     -4.77519538	      0.24821048	      0.00433209	      4.19683742	      2.87521874	     -7.49999987	     10.05756291	     -2.87946382	     -8.88361154	      0.24175454	      0.00421941	      3.61041737	     10.02114681	     -7.49999987	     -7.28793712	      5.97818565	      2.30544432	      0.66330174	    -23.56447934	     71.24334724	     19.60948212	     29.59940746	     -4.61134457	    -25.55785460	     64.40366829	     25.59593030	     35.32932519
      3.49583330	    -11.32530570	     -0.45157804	     -0.01608373	      0.40486356	      0.91277923	     -0.07612254	      8.81451733	     -3.35116632	     -4.79990224	      0.24791648	      0.00432696	      4.24438300	      2.92208570	     -7.49999987	      9.97429038	     -2.87332457	     -8.73890156	      0.23700340	      0.00413649	      3.60855498	      9.84504628	     -7.49999987	     -7.39051638	      5.88751284	      2.17970656	      0.78665578	    -23.62303738	     71.07898003	     19.94941797	     30.42670032	     -4.81253651	    -25.56756674	     64.32309875	     25.45204867	     35.87513888
      3.50000000	    -11.39626621	     -0.44187176	     -0.00068768	      0.40516598	      0.90904906	     -0.07583711	      8.86840655	     -3.35599779	     -4.68338862	      0.24763497	      0.00432205	      4.22347121	      2.68914645	     -7.49999987	     10.01846491	     -2.82855296	     -8.76112312	      0.23992450	      0.00418747	      3.78308436	      9.90786767	     -7.49999987	     -7.18879799	      5.74769369	      2.17369338	      0.80952713	    -23.71744426	     72.06729949	     20.33332938	     28.95485705	     -5.10033043	    -25.47509767	     65.72702364	     24.98917267	     33.09189375
      3.50416670	    -11.36091423	     -0.48073400	      0.00275195	      0.40478647	      0.90959011	     -0.07571333	      8.82165909	     -3.31558889	     -4.73365391	      0.24675073	      0.00430661	      4.39400897	      2.90495486	     -7.49999987	      9.96297694	     -2.88745180	     -8.59452325	      0.23790018	      0.00415214	      3.77007606	      9.64114317	     -7.49999987	     -7.25882722	      5.74286670	      2.16821237	      0.78619103	    -23.83536777	     71.49033180	     20.60617941	     30.98658172	     -5.48867338	    -25.39635402	     65.25352742	     24.84142923	     34.72642405
      3.50833330	    -11.40719522	     -0.49987812	     -0.04693031	      0.40510541	      0.90915918	     -0.07603969	      8.88632835	     -3.30054612	     -4.64282156	      0.24789953	      0.00432666	      4.45654631	      2.89069395	     -7.49999987	      9.97056256	     -2.92861932	     -8.42587211	      0.23653871	      0.00412838	      3.80704409	      9.43650335	     -7.49999987	     -7.16501509	      5.71394875	      2.14966147	      0.78236265	    -23.92611700	     71.27594241	     20.82184356	     31.80798102	     -5.80909577	    -25.31670315	     65.08744880	     24.67060866	     35.38171749
      3.51250000	    -11.35525171	     -0.51059395	     -0.06443318	      0.40477286	      0.90975984	     -0.07596843	      8.82959093	     -3.27991184	     -4.50259748	      0.24575441	      0.00428922	      4.44888119	      2.73466629	     -7.49999987	      9.86931312	     -2.97899318	     -8.33269583	      0.23523198	      0.00410557	      3.90563417	      9.60464955	     -7.49999987	     -7.20802785	      5.64438227	      2.14241129	      0.73259311	    -24.05058172	     70.80537346	     21.21456398	     33.28607459	     -5.97204781	    -25.25879942	     64.69862498	     24.49020625	     36.46979312
      3.51666670	    -11.55335875	     -0.49109842	     -0.12226957	      0.40528488	      0.91198459	     -0.07573522	      9.08563309	     -3.32232252	     -4.62116591	      0.24733957	      0.00431689	      4.52246886	      3.00568233	     -7.49999987	     10.08684064	     -2.95367190	     -8.36933124	      0.23467140	      0.00409579	      3.93867267	      9.74718490	     -7.49999987	     -6.88962523	      5.54116314	      2.10025915	      0.42685729	    -24.15233532	     69.98851402	     21.16254169	     35.22782897	     -6.07611327	    -25.07755691	     63.78597553	     23.75198936	     37.88304127
      3.52083330	    -11.52841180	     -0.49128059	     -0.11184385	      0.40488969	      0.91227308	     -0.07575003	      9.09547350	     -3.34630984	     -4.78581159	      0.24326230	      0.00424573	      4.51798529	      3.18996349	     -7.49999987	     10.08974644	     -2.93416505	     -8.03829454	      0.23159817	      0.00404215	      3.85622049	      9.41125011	     -7.49999987	     -6.98403263	      5.52187201	      1.95251268	      0.48035887	    -24.23282680	     69.84317165	     21.20135501	     35.71134416	     -6.23323593	    -25.12015910	     63.76640089	     23.62230008	     38.14346537
      3.52500000	    -11.70933747	     -0.45062764	     -0.16683171	      0.40532025	      0.90866859	     -0.07568801	      9.31769220	     -3.38372799	     -4.49542271	      0.24229035	      0.00422876	      4.43448382	      2.86403836	     -7.49999987	     10.28429485	     -2.89005218	     -8.18922499	      0.23197236	      0.00404868	      3.95559780	      9.57380180	     -7.49999987	     -6.64760873	      5.45805901	      1.88079651	      0.56782006	    -24.56491965	     72.12436337	     21.70813502	     30.98498142	     -6.15055317	    -25.57619685	     66.75340776	     24.07960228	     32.37835219
      3.52916670	    -11.79435026	     -0.45272312	     -0.20231612	      0.40502560	      0.90603317	     -0.07539713	      9.41997723	     -3.37182112	     -4.45469622	      0.24233821	      0.00422960	      4.51612834	      2.91203549	     -7.49999987	     10.37877731	     -2.89306834	     -8.13705811	      0.23221018	      0.00405283	      4.03480057	      9.37024942	     -7.49999987	     -6.54630777	      5.45689310	      1.73149697	      0.51474945	    -24.72600281	     71.76818935	     21.81637493	     32.49986939	     -6.54037968	    -25.70482191	     66.76256980	     24.27751561	     33.79410488
      3.53333330	    -11.87735149	     -0.44967737	     -0.23037473	      0.40552474	      0.90876025	     -0.07559367	      9.51025531	     -3.36862274	     -4.35720947	      0.24339658	      0.00424807	      4.44160732	      2.79554883	     -7.49999987	     10.47151804	     -2.89619887	     -8.11326444	      0.23250965	      0.00405806	      4.03108047	      9.28359780	     -7.49999987	     -6.37509366	      5.45166869	      1.69604591	      0.39214570	    -24.89975431	     72.03820166	     22.07080285	     32.10648273	     -6.38456735	    -25.78824819	     69.09653905	     24.32036885	     31.89959894
      3.53750000	    -11.86601851	     -0.44949660	     -0.27399099	      0.40521822	      0.90927767	     -0.07553047	      9.50184968	     -3.35275484	     -4.13393215	      0.24116287	      0.00420909	      4.38779978	      2.56295400	     -7.49999987	     10.45337906	     -2.90727774	     -8.18688544	      0.23271526	      0.00406165	      4.06905670	      9.25305110	     -7.49999987	     -6.42947996	      5.39810613	      1.51337394	      0.35033718	    -25.09975095	     71.38352043	     22.45881183	     34.05034429	     -6.76417120	    -25.88597589	     68.88049221	     24.37089018	     33.82830527
